<svg width="137" height="136" viewBox="0 0 137 136" fill="none" xmlns="http://www.w3.org/2000/svg">
<path d="M73.0088 76.2389L71.5175 76.4001L73.0088 76.2389ZM77.4392 74.2117C78.1697 74.6025 79.0786 74.3271 79.4694 73.5966C79.8601 72.8661 79.5847 71.9572 78.8542 71.5664L77.4392 74.2117ZM73.0088 76.2389L74.5001 76.0776C74.3668 74.8447 75.1894 73.9424 76.3586 73.9424V72.4424V70.9424C73.3344 70.9424 71.2001 73.4639 71.5175 76.4001L73.0088 76.2389ZM76.3586 72.4424V73.9424C76.7523 73.9424 77.1187 74.0403 77.4392 74.2117L78.1467 72.8891L78.8542 71.5664C78.1091 71.1678 77.2579 70.9424 76.3586 70.9424V72.4424ZM73.0088 76.2389L71.5175 76.4001C71.9325 80.2387 71.0935 85.4008 68.8177 89.56C66.5618 93.6828 63.0272 96.624 58.0465 96.624V98.124V99.624C64.455 99.624 68.8483 95.754 71.4495 91C74.0309 86.2822 74.9784 80.5018 74.5001 76.0776L73.0088 76.2389Z" fill="#CCECFD"/>
<g filter="url(#filter0_d_3010_382)">
<path d="M68.4888 75.5332C72.6785 75.5332 76.0748 72.056 76.0748 67.7666C76.0748 63.4772 72.6785 60 68.4888 60C64.2992 60 60.9028 63.4772 60.9028 67.7666C60.9028 69.027 61.1961 70.1383 61.7165 71.1908L64.3727 69.1204L69.1507 72.3057L68.4888 75.5332Z" fill="#CCECFD"/>
<path d="M68.4888 75.5332L66.5296 75.1315L66.0371 77.5332H68.4888V75.5332ZM61.7165 71.1908L59.9237 72.0773L62.946 72.7682L61.7165 71.1908ZM69.1507 72.3057L71.1099 72.7074L71.3804 71.3884L70.2601 70.6416L69.1507 72.3057ZM64.3727 69.1204L65.4821 67.4563L64.2814 66.6558L63.1432 67.5429L64.3727 69.1204ZM76.0748 67.7666H74.0748C74.0748 70.9961 71.5298 73.5332 68.4888 73.5332V75.5332V77.5332C73.8271 77.5332 78.0748 73.1159 78.0748 67.7666H76.0748ZM60.9028 67.7666H62.9028C62.9028 64.5372 65.4479 62 68.4888 62V60V58C63.1505 58 58.9028 62.4173 58.9028 67.7666H60.9028ZM68.4888 60V62C71.5298 62 74.0748 64.5372 74.0748 67.7666H76.0748H78.0748C78.0748 62.4173 73.8271 58 68.4888 58V60ZM61.7165 71.1908L63.5093 70.3043C63.1131 69.503 62.9028 68.6933 62.9028 67.7666H60.9028H58.9028C58.9028 69.3606 59.279 70.7736 59.9237 72.0773L61.7165 71.1908ZM68.4888 75.5332L70.4481 75.935L71.1099 72.7074L69.1507 72.3057L67.1914 71.9039L66.5296 75.1315L68.4888 75.5332ZM69.1507 72.3057L70.2601 70.6416L65.4821 67.4563L64.3727 69.1204L63.2633 70.7845L68.0413 73.9698L69.1507 72.3057ZM64.3727 69.1204L63.1432 67.5429L60.4869 69.6134L61.7165 71.1908L62.946 72.7682L65.6023 70.6978L64.3727 69.1204Z" fill="#CCECFD"/>
</g>
<path d="M58.9153 98.1197C79.6839 98.1197 86.6068 79.1377 86.3835 74.2247C86.2603 71.5141 88.5831 69.3117 91.2965 69.3117C94.0098 69.3117 96.2095 71.5113 96.2095 74.2247C96.209 81.3704 93.6727 88.6375 89.7333 94.5466C86.717 99.071 80.2152 105.151 74.5358 110" stroke="#CCECFD" stroke-width="4" stroke-linecap="round"/>
<path d="M78.7908 74.229H77.2908V74.243L77.2911 74.257L78.7908 74.229ZM58.9155 96.624C58.0871 96.624 57.4155 97.2956 57.4155 98.124C57.4155 98.9525 58.0871 99.624 58.9155 99.624V96.624ZM78.7908 74.229H80.2908C80.2908 72.8374 81.4189 71.7093 82.8105 71.7093V70.2093V68.7093C79.7621 68.7093 77.2908 71.1805 77.2908 74.229H78.7908ZM78.7908 74.229L77.2911 74.257C77.3619 78.0445 76.491 83.7227 73.7157 88.3977C70.9911 92.9873 66.4416 96.624 58.9155 96.624V98.124V99.624C67.6469 99.624 73.1095 95.2957 76.2954 89.9291C79.4306 84.6479 80.3686 78.3785 80.2905 74.201L78.7908 74.229ZM82.8105 70.2093V71.7093C83.9089 71.7093 84.8468 72.4129 85.1906 73.3986L86.6069 72.9045L88.0232 72.4104C87.2722 70.2575 85.2241 68.7093 82.8105 68.7093V70.2093Z" fill="#CCECFD"/>
<path d="M63.1579 70.438L63.7858 72.3369L63.8052 72.3305L63.8244 72.3237L63.1579 70.438ZM67.9798 76.2389L66.2486 75.2374L66.2486 75.2374L67.9798 76.2389ZM57.3517 85.8415L56.1629 84.2332L57.3517 85.8415ZM33.2399 82.8131C32.1781 83.1172 31.5638 84.2246 31.8679 85.2865C32.172 86.3484 33.2793 86.9627 34.3412 86.6585L33.2399 82.8131ZM64.4979 70.2093V72.2093C65.6133 72.2093 66.5176 73.1135 66.5176 74.229H68.5176H70.5176C70.5176 70.9044 67.8225 68.2093 64.4979 68.2093V70.2093ZM63.1579 70.438L63.8244 72.3237C64.0325 72.2502 64.2582 72.2093 64.4979 72.2093V70.2093V68.2093C63.7978 68.2093 63.1216 68.3296 62.4915 68.5523L63.1579 70.438ZM48.6423 93.6577H46.6423C46.6423 96.7958 49.1804 98.3821 51.3795 99.1254C53.6682 99.8991 56.4923 100.124 58.9149 100.124V98.124V96.124C56.6478 96.124 54.3356 95.9023 52.6604 95.3361C50.8956 94.7395 50.6423 94.0926 50.6423 93.6577H48.6423ZM68.5176 74.229H66.5176C66.5176 74.6002 66.4193 74.9424 66.2486 75.2374L67.9798 76.2389L69.711 77.2403C70.2244 76.3529 70.5176 75.3221 70.5176 74.229H68.5176ZM67.9798 76.2389L66.2486 75.2374C65.9082 75.8259 64.8146 77.0494 62.9418 78.7449C61.1404 80.3757 58.7947 82.288 56.1629 84.2332L57.3517 85.8415L58.5405 87.4499C61.2576 85.4415 63.7092 83.4458 65.6263 81.7102C67.472 80.0394 69.018 78.4383 69.711 77.2403L67.9798 76.2389ZM57.3517 85.8415L56.1629 84.2332C55.2363 84.9181 54.2562 85.5288 53.2568 86.1357C52.2861 86.7253 51.2505 87.3382 50.3482 87.9652C48.6238 89.1636 46.6423 90.9003 46.6423 93.6577H48.6423H50.6423C50.6423 93.0653 51.0056 92.3795 52.6309 91.25C53.4035 90.7131 54.294 90.1857 55.3332 89.5546C56.3437 88.9409 57.4572 88.2506 58.5405 87.4499L57.3517 85.8415ZM63.1579 70.438L62.5301 68.5391C62.0828 68.687 61.4743 69.0217 60.9328 69.328C60.3172 69.6762 59.5307 70.1404 58.6237 70.6763C56.7972 71.7555 54.4187 73.1629 51.6965 74.6659C46.2285 77.6849 39.4898 81.0233 33.2399 82.8131L33.7906 84.7358L34.3412 86.6585C41.0366 84.7411 48.0943 81.2239 53.6299 78.1676C56.4097 76.6328 58.8348 75.1976 60.6584 74.1201C61.5764 73.5778 62.3266 73.1352 62.9022 72.8096C63.552 72.442 63.7894 72.3357 63.7858 72.3369L63.1579 70.438Z" fill="#CCECFD"/>
<defs>
<filter id="filter0_d_3010_382" x="0.902832" y="0" width="135.172" height="135.533" filterUnits="userSpaceOnUse" color-interpolation-filters="sRGB">
<feFlood flood-opacity="0" result="BackgroundImageFix"/>
<feColorMatrix in="SourceAlpha" type="matrix" values="0 0 0 0 0 0 0 0 0 0 0 0 0 0 0 0 0 0 127 0" result="hardAlpha"/>
<feOffset/>
<feGaussianBlur stdDeviation="29"/>
<feComposite in2="hardAlpha" operator="out"/>
<feColorMatrix type="matrix" values="0 0 0 0 1 0 0 0 0 1 0 0 0 0 1 0 0 0 1 0"/>
<feBlend mode="normal" in2="BackgroundImageFix" result="effect1_dropShadow_3010_382"/>
<feBlend mode="normal" in="SourceGraphic" in2="effect1_dropShadow_3010_382" result="shape"/>
</filter>
</defs>
</svg>
