<svg width="68" height="54" viewBox="0 0 68 54" fill="none" xmlns="http://www.w3.org/2000/svg">
<path d="M42.0086 18.2389L40.0202 18.4538V18.4538L42.0086 18.2389ZM46.2031 16.6526C47.1771 17.1736 48.389 16.8064 48.91 15.8324C49.431 14.8585 49.0638 13.6465 48.0898 13.1255L46.2031 16.6526ZM43.997 18.0239C43.8944 17.0748 44.4984 16.4424 45.3584 16.4424V12.4424C42.0249 12.4424 39.6721 15.2338 40.0202 18.4538L43.997 18.0239ZM45.3584 16.4424C45.6678 16.4424 45.9534 16.519 46.2031 16.6526L48.0898 13.1255C47.2739 12.6891 46.342 12.4424 45.3584 12.4424V16.4424ZM40.0202 18.4538C40.4246 22.1948 39.6036 27.2539 37.3788 31.32C35.1805 35.3376 31.789 38.124 27.0463 38.124V42.124C33.6928 42.124 38.2291 38.0992 40.8879 33.24C43.5203 28.4291 44.4858 22.5456 43.997 18.0239L40.0202 18.4538Z" fill="#CCECFD"/>
<path d="M37.4886 17.5332C41.6782 17.5332 45.0746 14.056 45.0746 9.76662C45.0746 5.47723 41.6782 2 37.4886 2C33.299 2 29.9026 5.47723 29.9026 9.76662C29.9026 11.027 30.1958 12.1383 30.7162 13.1908L33.3725 11.1204L38.1504 14.3057L37.4886 17.5332Z" fill="#CCECFD"/>
<path d="M37.4886 17.5332L35.5294 17.1315L35.0369 19.5332H37.4886V17.5332ZM30.7162 13.1908L28.9234 14.0773L31.9457 14.7682L30.7162 13.1908ZM38.1504 14.3057L40.1097 14.7074L40.3801 13.3884L39.2598 12.6416L38.1504 14.3057ZM33.3725 11.1204L34.4819 9.45627L33.2812 8.65578L32.143 9.54295L33.3725 11.1204ZM43.0746 9.76662C43.0746 12.9961 40.5295 15.5332 37.4886 15.5332V19.5332C42.8269 19.5332 47.0746 15.1159 47.0746 9.76662H43.0746ZM31.9026 9.76662C31.9026 6.53718 34.4476 4 37.4886 4V0C32.1503 0 27.9026 4.41729 27.9026 9.76662H31.9026ZM37.4886 4C40.5295 4 43.0746 6.53718 43.0746 9.76662H47.0746C47.0746 4.41729 42.8269 0 37.4886 0V4ZM32.509 12.3043C32.1128 11.503 31.9026 10.6933 31.9026 9.76662H27.9026C27.9026 11.3606 28.2788 12.7736 28.9234 14.0773L32.509 12.3043ZM39.4478 17.935L40.1097 14.7074L36.1912 13.9039L35.5294 17.1315L39.4478 17.935ZM39.2598 12.6416L34.4819 9.45627L32.2631 12.7845L37.041 15.9698L39.2598 12.6416ZM32.143 9.54295L29.4867 11.6134L31.9457 14.7682L34.602 12.6978L32.143 9.54295Z" fill="#CCECFD"/>
<path d="M27.9151 40.1197C48.6837 40.1197 55.6065 21.1377 55.3832 16.2247C55.26 13.5141 57.5829 11.3117 60.2962 11.3117C63.0096 11.3117 65.2092 13.5113 65.2092 16.2247C65.2088 23.3704 62.6724 30.6375 58.733 36.5466C55.7168 41.071 49.215 47.1506 43.5355 52" stroke="#CCECFD" stroke-width="4" stroke-linecap="round"/>
<path d="M47.7906 16.229H45.7906V16.2477L45.7909 16.2664L47.7906 16.229ZM27.9152 38.124C26.8107 38.124 25.9152 39.0195 25.9152 40.124C25.9152 41.2286 26.8107 42.124 27.9152 42.124V38.124ZM49.7906 16.229C49.7906 15.1135 50.6948 14.2093 51.8103 14.2093V10.2093C48.4857 10.2093 45.7906 12.9044 45.7906 16.229H49.7906ZM45.7909 16.2664C45.8605 19.9889 45.0008 25.5685 42.2855 30.1424C39.6378 34.6026 35.2405 38.124 27.9152 38.124V42.124C36.8476 42.124 42.4623 37.6805 45.7251 32.1843C48.9203 26.8021 49.8695 20.4341 49.7902 16.1916L45.7909 16.2664ZM51.8103 14.2093C52.6895 14.2093 53.4423 14.7722 53.7183 15.5633L57.4951 14.2457C56.6762 11.8982 54.443 10.2093 51.8103 10.2093V14.2093Z" fill="#CCECFD"/>
<path d="M32.1577 12.438L32.7856 14.3369L32.8049 14.3305L32.8242 14.3237L32.1577 12.438ZM36.9796 18.2389L38.7108 19.2403L38.7108 19.2403L36.9796 18.2389ZM26.3514 27.8415L27.5402 29.4499L26.3514 27.8415ZM2.2397 24.8131C1.17782 25.1172 0.563522 26.2246 0.86763 27.2865C1.17174 28.3484 2.27909 28.9627 3.34097 28.6585L2.2397 24.8131ZM33.4976 14.2093C34.6131 14.2093 35.5173 15.1135 35.5173 16.229H39.5173C39.5173 12.9044 36.8222 10.2093 33.4976 10.2093V14.2093ZM32.8242 14.3237C33.0322 14.2502 33.258 14.2093 33.4976 14.2093V10.2093C32.7976 10.2093 32.1214 10.3296 31.4912 10.5523L32.8242 14.3237ZM15.642 35.6577C15.642 38.7958 18.1802 40.3821 20.3793 41.1254C22.6679 41.8991 25.4921 42.124 27.9147 42.124V38.124C25.6476 38.124 23.3354 37.9023 21.6602 37.3361C19.8953 36.7395 19.642 36.0926 19.642 35.6577H15.642ZM35.5173 16.229C35.5173 16.6002 35.419 16.9424 35.2484 17.2374L38.7108 19.2403C39.2241 18.3528 39.5173 17.3221 39.5173 16.229H35.5173ZM35.2484 17.2374C34.9079 17.8259 33.8143 19.0494 31.9415 20.7449C30.1402 22.3757 27.7944 24.288 25.1626 26.2332L27.5402 29.4499C30.2574 27.4415 32.709 25.4458 34.6261 23.7102C36.4717 22.0394 38.0178 20.4383 38.7108 19.2403L35.2484 17.2374ZM25.1626 26.2332C24.236 26.9181 23.2559 27.5288 22.2566 28.1357C21.2859 28.7253 20.2503 29.3382 19.348 29.9652C17.6236 31.1636 15.642 32.9003 15.642 35.6577H19.642C19.642 35.0653 20.0053 34.3795 21.6307 33.25C22.4033 32.7131 23.2938 32.1857 24.333 31.5546C25.3435 30.9409 26.457 30.2506 27.5402 29.4499L25.1626 26.2332ZM31.5298 10.5391C31.0825 10.687 30.4741 11.0217 29.9325 11.328C29.3169 11.6762 28.5305 12.1404 27.6234 12.6763C25.7969 13.7555 23.4184 15.1629 20.6963 16.6659C15.2283 19.6849 8.48954 23.0233 2.2397 24.8131L3.34097 28.6585C10.0364 26.7411 17.094 23.2239 22.6297 20.1676C25.4094 18.6328 27.8346 17.1976 29.6582 16.1201C30.5762 15.5778 31.3263 15.1352 31.902 14.8096C32.5517 14.442 32.7892 14.3357 32.7856 14.3369L31.5298 10.5391Z" fill="#CCECFD"/>
</svg>
