<svg width="56" height="45" viewBox="0 0 56 45" fill="none" xmlns="http://www.w3.org/2000/svg">
<path d="M20.5535 16.5944C19.9512 17.2593 19.0965 17.6689 18.1776 17.7329C17.2586 17.7969 16.3506 17.5102 15.6533 16.9358C14.956 16.3614 14.5265 15.5463 14.4594 14.67C14.3923 13.7936 14.6929 12.9277 15.2953 12.2627L25.363 1.14309C25.9677 0.47956 26.8234 0.0716015 27.7429 0.00856094C28.6624 -0.0544796 29.5705 0.23254 30.2686 0.806757C30.4191 0.938363 30.5618 1.07787 30.6961 1.22463L40.6355 11.7021C41.252 12.3522 41.5725 13.2093 41.5264 14.0847C41.4803 14.9601 41.0714 15.7822 40.3897 16.3701C39.708 16.9581 38.8093 17.2637 37.8913 17.2197C36.9734 17.1757 36.1113 16.7858 35.4948 16.1357L31.4763 11.906V27.6528C31.4763 28.0892 31.3861 28.5212 31.211 28.9243C31.0359 29.3275 30.7793 29.6937 30.4558 30.0023C30.1322 30.3108 29.7481 30.5556 29.3254 30.7225C28.9027 30.8895 28.4496 30.9755 27.9921 30.9755C27.5346 30.9755 27.0815 30.8895 26.6588 30.7225C26.2361 30.5556 25.852 30.3108 25.5284 30.0023C25.2049 29.6937 24.9483 29.3275 24.7732 28.9243C24.5981 28.5212 24.5079 28.0892 24.5079 27.6528V12.2219L20.5535 16.5944ZM0.931152 30.6085C0.931152 29.7273 1.29823 28.8822 1.95164 28.2591C2.60504 27.636 3.49125 27.2859 4.41531 27.2859C5.33936 27.2859 6.22557 27.636 6.87897 28.2591C7.53238 28.8822 7.89946 29.7273 7.89946 30.6085V38.2119H48.1061V30.6085C48.0799 30.1574 48.1504 29.7059 48.3134 29.2817C48.4764 28.8574 48.7284 28.4693 49.054 28.1411C49.3796 27.8129 49.772 27.5514 50.2072 27.3728C50.6423 27.1941 51.1111 27.102 51.5849 27.102C52.0587 27.102 52.5275 27.1941 52.9627 27.3728C53.3979 27.5514 53.7903 27.8129 54.1159 28.1411C54.4415 28.4693 54.6935 28.8574 54.8565 29.2817C55.0194 29.7059 55.09 30.1574 55.0637 30.6085V41.5345C55.0637 42.4157 54.6967 43.2608 54.0433 43.884C53.3899 44.5071 52.5036 44.8571 51.5796 44.8571H4.41531C3.49125 44.8571 2.60504 44.5071 1.95164 43.884C1.29823 43.2608 0.931152 42.4157 0.931152 41.5345V30.6085Z" fill="#CCECFD"/>
</svg>
