<svg width="137" height="136" viewBox="0 0 137 136" fill="none" xmlns="http://www.w3.org/2000/svg">
<path d="M73.0087 76.2389L71.5174 76.4001L73.0087 76.2389ZM77.4391 74.2117C78.1696 74.6025 79.0785 74.3271 79.4693 73.5966C79.86 72.8661 79.5846 71.9572 78.8541 71.5664L77.4391 74.2117ZM73.0087 76.2389L74.5 76.0776C74.3667 74.8447 75.1893 73.9424 76.3585 73.9424V72.4424V70.9424C73.3342 70.9424 71.2 73.4639 71.5174 76.4001L73.0087 76.2389ZM76.3585 72.4424V73.9424C76.7522 73.9424 77.1186 74.0403 77.4391 74.2117L78.1466 72.8891L78.8541 71.5664C78.109 71.1678 77.2578 70.9424 76.3585 70.9424V72.4424ZM73.0087 76.2389L71.5174 76.4001C71.9324 80.2387 71.0933 85.4008 68.8176 89.56C66.5617 93.6828 63.0271 96.624 58.0464 96.624V98.124V99.624C64.4549 99.624 68.8481 95.754 71.4494 91C74.0308 86.2822 74.9783 80.5018 74.5 76.0776L73.0087 76.2389Z" fill="#4E3681"/>
<g filter="url(#filter0_d_608_609)">
<path d="M68.4887 75.5332C72.6783 75.5332 76.0747 72.056 76.0747 67.7666C76.0747 63.4772 72.6783 60 68.4887 60C64.2991 60 60.9027 63.4772 60.9027 67.7666C60.9027 69.027 61.1959 70.1383 61.7163 71.1908L64.3726 69.1204L69.1505 72.3057L68.4887 75.5332Z" fill="#4E3681"/>
<path d="M68.4887 75.5332L66.5295 75.1315L66.037 77.5332H68.4887V75.5332ZM61.7163 71.1908L59.9235 72.0773L62.9459 72.7682L61.7163 71.1908ZM69.1505 72.3057L71.1098 72.7074L71.3802 71.3884L70.2599 70.6416L69.1505 72.3057ZM64.3726 69.1204L65.482 67.4563L64.2813 66.6558L63.1431 67.5429L64.3726 69.1204ZM74.0747 67.7666C74.0747 70.9961 71.5297 73.5332 68.4887 73.5332V77.5332C73.827 77.5332 78.0747 73.1159 78.0747 67.7666H74.0747ZM62.9027 67.7666C62.9027 64.5372 65.4478 62 68.4887 62V58C63.1504 58 58.9027 62.4173 58.9027 67.7666H62.9027ZM68.4887 62C71.5297 62 74.0747 64.5372 74.0747 67.7666H78.0747C78.0747 62.4173 73.827 58 68.4887 58V62ZM63.5092 70.3043C63.1129 69.503 62.9027 68.6933 62.9027 67.7666H58.9027C58.9027 69.3606 59.2789 70.7736 59.9235 72.0773L63.5092 70.3043ZM70.4479 75.935L71.1098 72.7074L67.1913 71.9039L66.5295 75.1315L70.4479 75.935ZM70.2599 70.6416L65.482 67.4563L63.2632 70.7845L68.0411 73.9698L70.2599 70.6416ZM63.1431 67.5429L60.4868 69.6134L62.9459 72.7682L65.6021 70.6978L63.1431 67.5429Z" fill="#4E3681"/>
</g>
<path d="M58.9151 98.1197C79.6837 98.1197 86.6065 79.1377 86.3832 74.2247C86.26 71.5141 88.5829 69.3117 91.2962 69.3117C94.0096 69.3117 96.2092 71.5113 96.2092 74.2247C96.2088 81.3704 93.6724 88.6375 89.733 94.5466C86.7168 99.071 80.215 105.151 74.5355 110" stroke="#4E3681" stroke-width="4" stroke-linecap="round"/>
<path d="M78.7904 74.229H77.2904V74.243L77.2907 74.257L78.7904 74.229ZM58.9151 96.624C58.0867 96.624 57.4151 97.2956 57.4151 98.124C57.4151 98.9525 58.0867 99.624 58.9151 99.624V96.624ZM78.7904 74.229H80.2904C80.2904 72.8374 81.4186 71.7093 82.8102 71.7093V70.2093V68.7093C79.7617 68.7093 77.2904 71.1805 77.2904 74.229H78.7904ZM78.7904 74.229L77.2907 74.257C77.3615 78.0445 76.4907 83.7227 73.7154 88.3977C70.9907 92.9873 66.4413 96.624 58.9151 96.624V98.124V99.624C67.6466 99.624 73.1092 95.2957 76.295 89.9291C79.4302 84.6479 80.3683 78.3785 80.2902 74.201L78.7904 74.229ZM82.8102 70.2093V71.7093C83.9085 71.7093 84.8464 72.4129 85.1903 73.3986L86.6066 72.9045L88.0229 72.4104C87.2718 70.2575 85.2237 68.7093 82.8102 68.7093V70.2093Z" fill="#4E3681"/>
<path d="M63.1578 70.438L63.7857 72.3369L63.8051 72.3305L63.8243 72.3237L63.1578 70.438ZM67.9797 76.2389L66.2485 75.2374L66.2485 75.2374L67.9797 76.2389ZM57.3516 85.8415L56.1628 84.2332L57.3516 85.8415ZM33.2398 82.8131C32.1779 83.1172 31.5636 84.2246 31.8678 85.2865C32.1719 86.3484 33.2792 86.9627 34.3411 86.6585L33.2398 82.8131ZM64.4977 70.2093V72.2093C65.6132 72.2093 66.5175 73.1135 66.5175 74.229H68.5175H70.5175C70.5175 70.9044 67.8223 68.2093 64.4977 68.2093V70.2093ZM63.1578 70.438L63.8243 72.3237C64.0323 72.2502 64.2581 72.2093 64.4977 72.2093V70.2093V68.2093C63.7977 68.2093 63.1215 68.3296 62.4913 68.5523L63.1578 70.438ZM48.6421 93.6577H46.6421C46.6421 96.7958 49.1803 98.3821 51.3794 99.1254C53.6681 99.8991 56.4922 100.124 58.9148 100.124V98.124V96.124C56.6477 96.124 54.3355 95.9023 52.6603 95.3361C50.8955 94.7395 50.6421 94.0926 50.6421 93.6577H48.6421ZM68.5175 74.229H66.5175C66.5175 74.6002 66.4191 74.9424 66.2485 75.2374L67.9797 76.2389L69.7109 77.2403C70.2243 76.3529 70.5175 75.3221 70.5175 74.229H68.5175ZM67.9797 76.2389L66.2485 75.2374C65.908 75.8259 64.8145 77.0494 62.9417 78.7449C61.1403 80.3757 58.7945 82.288 56.1628 84.2332L57.3516 85.8415L58.5403 87.4499C61.2575 85.4415 63.7091 83.4458 65.6262 81.7102C67.4718 80.0394 69.0179 78.4383 69.7109 77.2403L67.9797 76.2389ZM57.3516 85.8415L56.1628 84.2332C55.2362 84.9181 54.256 85.5288 53.2567 86.1357C52.286 86.7253 51.2504 87.3382 50.3481 87.9652C48.6237 89.1636 46.6421 90.9003 46.6421 93.6577H48.6421H50.6421C50.6421 93.0653 51.0054 92.3795 52.6308 91.25C53.4034 90.7131 54.2939 90.1857 55.3331 89.5546C56.3436 88.9409 57.4571 88.2506 58.5403 87.4499L57.3516 85.8415ZM63.1578 70.438L62.53 68.5391C62.0827 68.687 61.4742 69.0217 60.9327 69.328C60.317 69.6762 59.5306 70.1404 58.6236 70.6763C56.7971 71.7555 54.4185 73.1629 51.6964 74.6659C46.2284 77.6849 39.4897 81.0233 33.2398 82.8131L33.7905 84.7358L34.3411 86.6585C41.0365 84.7411 48.0941 81.2239 53.6298 78.1676C56.4095 76.6328 58.8347 75.1976 60.6583 74.1201C61.5763 73.5778 62.3264 73.1352 62.9021 72.8096C63.5518 72.442 63.7893 72.3357 63.7857 72.3369L63.1578 70.438Z" fill="#4E3681"/>
<defs>
<filter id="filter0_d_608_609" x="0.90271" y="0" width="135.172" height="135.533" filterUnits="userSpaceOnUse" color-interpolation-filters="sRGB">
<feFlood flood-opacity="0" result="BackgroundImageFix"/>
<feColorMatrix in="SourceAlpha" type="matrix" values="0 0 0 0 0 0 0 0 0 0 0 0 0 0 0 0 0 0 127 0" result="hardAlpha"/>
<feOffset/>
<feGaussianBlur stdDeviation="29"/>
<feComposite in2="hardAlpha" operator="out"/>
<feColorMatrix type="matrix" values="0 0 0 0 1 0 0 0 0 1 0 0 0 0 1 0 0 0 1 0"/>
<feBlend mode="normal" in2="BackgroundImageFix" result="effect1_dropShadow_608_609"/>
<feBlend mode="normal" in="SourceGraphic" in2="effect1_dropShadow_608_609" result="shape"/>
</filter>
</defs>
</svg>
