<svg width="19" height="19" viewBox="0 0 19 19" fill="none" xmlns="http://www.w3.org/2000/svg">
<path d="M9.5 19C14.7467 19 19 14.7467 19 9.5C19 4.25329 14.7467 0 9.5 0C4.25329 0 0 4.25329 0 9.5C0 14.7467 4.25329 19 9.5 19ZM13.7154 5.25699C13.9318 4.89066 14.4038 4.76931 14.77 4.98569C15.1363 5.20208 15.2577 5.67397 15.0413 6.0403L9.57973 14.77C9.45941 14.9736 9.25205 15.111 9.01758 15.1421C8.78314 15.173 8.54735 15.0947 8.37819 14.9295L4.59705 11.2346C4.29278 10.9372 4.28673 10.4495 4.58401 10.1454C4.88126 9.84101 5.36892 9.83549 5.67322 10.1329L8.7528 13.1412L13.7154 5.25699Z" fill="white"/>
<path d="M9.5 19C14.7467 19 19 14.7467 19 9.5C19 4.25329 14.7467 0 9.5 0C4.25329 0 0 4.25329 0 9.5C0 14.7467 4.25329 19 9.5 19ZM13.7154 5.25699C13.9318 4.89066 14.4038 4.76931 14.77 4.98569C15.1363 5.20208 15.2577 5.67397 15.0413 6.0403L9.57973 14.77C9.45941 14.9736 9.25205 15.111 9.01758 15.1421C8.78314 15.173 8.54735 15.0947 8.37819 14.9295L4.59705 11.2346C4.29278 10.9372 4.28673 10.4495 4.58401 10.1454C4.88126 9.84101 5.36892 9.83549 5.67322 10.1329L8.7528 13.1412L13.7154 5.25699Z" fill="#00DC82"/>
</svg>
