<svg width="56" height="45" viewBox="0 0 56 45" fill="none" xmlns="http://www.w3.org/2000/svg">
<path d="M20.5534 16.5944C19.9511 17.2593 19.0964 17.6689 18.1775 17.7329C17.2585 17.7969 16.3505 17.5102 15.6532 16.9358C14.9559 16.3614 14.5264 15.5463 14.4593 14.67C14.3921 13.7936 14.6928 12.9277 15.2951 12.2627L25.3628 1.14309C25.9675 0.47956 26.8233 0.0716015 27.7428 0.00856094C28.6622 -0.0544796 29.5704 0.23254 30.2684 0.806757C30.419 0.938363 30.5617 1.07787 30.6959 1.22463L40.6354 11.7021C41.2519 12.3522 41.5723 13.2093 41.5262 14.0847C41.4801 14.9601 41.0713 15.7822 40.3896 16.3701C39.7079 16.9581 38.8092 17.2637 37.8912 17.2197C36.9732 17.1757 36.1112 16.7858 35.4947 16.1357L31.4761 11.906V27.6528C31.4761 28.0892 31.386 28.5212 31.2109 28.9243C31.0358 29.3275 30.7792 29.6937 30.4556 30.0023C30.1321 30.3108 29.748 30.5556 29.3253 30.7225C28.9026 30.8895 28.4495 30.9755 27.992 30.9755C27.5344 30.9755 27.0814 30.8895 26.6587 30.7225C26.2359 30.5556 25.8518 30.3108 25.5283 30.0023C25.2048 29.6937 24.9481 29.3275 24.773 28.9243C24.5979 28.5212 24.5078 28.0892 24.5078 27.6528V12.2219L20.5534 16.5944ZM0.93103 30.6085C0.93103 29.7273 1.29811 28.8822 1.95152 28.2591C2.60492 27.636 3.49113 27.2859 4.41518 27.2859C5.33924 27.2859 6.22544 27.636 6.87885 28.2591C7.53225 28.8822 7.89933 29.7273 7.89933 30.6085V38.2119H48.106V30.6085C48.0798 30.1574 48.1503 29.7059 48.3133 29.2817C48.4763 28.8574 48.7282 28.4693 49.0539 28.1411C49.3795 27.8129 49.7719 27.5514 50.207 27.3728C50.6422 27.1941 51.111 27.102 51.5848 27.102C52.0586 27.102 52.5274 27.1941 52.9626 27.3728C53.3978 27.5514 53.7901 27.8129 54.1158 28.1411C54.4414 28.4693 54.6934 28.8574 54.8563 29.2817C55.0193 29.7059 55.0899 30.1574 55.0636 30.6085V41.5345C55.0636 42.4157 54.6965 43.2608 54.0431 43.884C53.3897 44.5071 52.5035 44.8571 51.5795 44.8571H4.41518C3.49113 44.8571 2.60492 44.5071 1.95152 43.884C1.29811 43.2608 0.93103 42.4157 0.93103 41.5345V30.6085Z" fill="#4E3681"/>
</svg>
